{"title":"Eragon 2006 BRRip H264 AAC-MS","uid":5668065,"size":1652984811,"categoryP":"video","categoryS":"hd___movies","magnet":"?xt=urn:btih:5d2c3914e3fc928e37d2d459d4a6d622ed2bf6f7&amp;dn=Eragon+2006+BRRip+H264+AAC-MS&amp;tr=udp%3A%2F%2Ftracker.openbittorrent.com%3A80&amp;tr=udp%3A%2F%2Fopen.demonii.com%3A1337&amp;tr=udp%3A%2F%2Ftracker.coppersurfer.tk%3A6969&amp;tr=udp%3A%2F%2Fexodus.desync.com%3A6969","seeders":0,"leechers":1,"uploader":"rev-x","files":6,"time":1278219964,"description":" Eragon 2006 BRRip H264 AAC-MS.mp4\n      Format : MPEG-4\n      Format profile : Base Media\n      Codec ID : isom\n      File size : 1.54 GiB\n      Duration : 1h 44mn\n      Overall bit rate : 2 118 Kbps\n      \n   Video #1\n      Format : AVC\n      Format/Info : Advanced Video Codec\n      Format profile : &lt;a class=&quot;__cf_email__&quot; href=&quot;/cdn-cgi/l/email-protection&quot; data-cfemail=&quot;e8a0818f80a8a4dcc6d9&quot;&gt;[email&amp;#160;protected]&lt;/a&gt;&lt;script cf-hash='f9e31' type=&quot;text/javascript&quot;&gt;\n/* &lt;![CDATA[ */!function(){try{var t=&quot;currentScript&quot;in document?document.currentScript:function(){for(var t=document.getElementsByTagName(&quot;script&quot;),e=t.length;e--;)if(t[e].getAttribute(&quot;cf-hash&quot;))return t[e]}();if(t&amp;&amp;t.previousSibling){var e,r,n,i,c=t.previousSibling,a=c.getAttribute(&quot;data-cfemail&quot;);if(a){for(e=&quot;&quot;,r=parseInt(a.substr(0,2),16),n=2;a.length-n;n+=2)i=parseInt(a.substr(n,2),16)^r,e+=String.fromCharCode(i);e=document.createTextNode(e),c.parentNode.replaceChild(e,c)}}}catch(u){}}();/* ]]&gt; */&lt;/script&gt;\n      Format settings, CABAC : Yes\n      Format settings, ReFrames : 3 frames\n      Codec ID : avc1\n      Codec ID/Info : Advanced Video Coding\n      Duration : 1h 44mn\n      Bit rate mode : Variable\n      Bit rate : 1 800 Kbps\n      Maximum bit rate : 6 354 Kbps\n      Width : 1 280 pixels\n      Height : 544 pixels\n      Display aspect ratio : 2.35\n      Frame rate mode : Constant\n      Frame rate : 23.976 fps\n      Resolution : 24 bits\n      Colorimetry : 4:2:0\n      Scan type : Progressive\n      Bits/(Pixel*Frame) : 0.108\n      Stream size : 1.31 GiB (85%)\n      Writing library : x264 core 65\n      \n   Audio #2\n      Format : AAC\n      Format/Info : Advanced Audio Codec\n      Format version : Version 4\n      Format profile : LC\n      Format settings, SBR : No\n      Codec ID : 40\n      Duration : 1h 44mn\n      Bit rate mode : Variable\n      Bit rate : 315 Kbps\n      Maximum bit rate : 385 Kbps\n      Channel(s) : 6 channels\n      Channel positions : Front: L C R, Rear: L R, LFE\n      Sampling rate : 48.0 KHz\n      Resolution : 16 bits\n      Stream size : 234 MiB (15%)\n\nSCREEN:\n &lt;a href=&quot;\nhttp://i865.photobucket.com/albums/ab211/revisionx/Screenshot/vlcsnap-109919.jpg&quot; rel=&quot;nofollow&quot; target=&quot;_NEW&quot;&gt;\nhttp://i865.photobucket.com/albums/ab211/revisionx/Screenshot/vlcsnap-109919.jpg&lt;/a&gt;\n &lt;a href=&quot;\nhttp://i865.photobucket.com/albums/ab211/revisionx/Screenshot/vlcsnap-106535.jpg&quot; rel=&quot;nofollow&quot; target=&quot;_NEW&quot;&gt;\nhttp://i865.photobucket.com/albums/ab211/revisionx/Screenshot/vlcsnap-106535.jpg&lt;/a&gt;\n &lt;a href=&quot;\nhttp://i865.photobucket.com/albums/ab211/revisionx/Screenshot/vlcsnap-107111.jpg&quot; rel=&quot;nofollow&quot; target=&quot;_NEW&quot;&gt;\nhttp://i865.photobucket.com/albums/ab211/revisionx/Screenshot/vlcsnap-107111.jpg&lt;/a&gt;","torrent":{"xt":"urn:btih:5d2c3914e3fc928e37d2d459d4a6d622ed2bf6f7","amp;dn":"Eragon+2006+BRRip+H264+AAC-MS","amp;tr":["udp%3A%2F%2Ftracker.openbittorrent.com%3A80","udp%3A%2F%2Fopen.demonii.com%3A1337","udp%3A%2F%2Ftracker.coppersurfer.tk%3A6969","udp%3A%2F%2Fexodus.desync.com%3A6969"],"infoHash":"5d2c3914e3fc928e37d2d459d4a6d622ed2bf6f7","infoHashBuffer":{"type":"Buffer","data":[93,44,57,20,227,252,146,142,55,210,212,89,212,166,214,34,237,43,246,247]},"announce":[],"urlList":[]}}